<?xml version="1.0"?><svg viewBox="0 0 96 96" xmlns="http://www.w3.org/2000/svg"><g><rect fill="#f7a3a0" height="10" width="10" x="43" y="50"/><path d="M67.88,57c-3.1366-1.2408-8.1547-2.0742-14.88-2a14.6279,14.6279,0,0,1-5,3,14.6279,14.6279,0,0,1-5-3c-6.74-.0676-11.7281.7538-14.88,2C20.84,59.58,19,61,19,75V91H77V75C77,61,75.16,59.58,67.88,57Z" fill="#cdecf8"/><polygon fill="#a02c3f" points="48 58 44 58 46.5 62.069 49.5 62.069 52 58 48 58"/><path d="M54.15,55.01A16.2906,16.2906,0,0,1,52,63a11.2513,11.2513,0,0,0-4-5,39.0837,39.0837,0,0,0,5-4S53.78,55,54.15,55.01Z" fill="#98d1e6"/><path d="M41.85,55.01A16.2906,16.2906,0,0,0,44,63a11.2513,11.2513,0,0,1,4-5,39.0837,39.0837,0,0,1-5-4S42.22,55,41.85,55.01Z" fill="#98d1e6"/><path d="M49.5,62.0693h-3S44,75.0892,44,80.7532V91h8V80.7532C52,75.0892,49.5,62.0693,49.5,62.0693Z" fill="#d53b54"/><polygon fill="#98d1e6" points="67 72 67 91 65 91 67 72"/><polygon fill="#98d1e6" points="29 72 29 91 31 91 29 72"/><path d="M29,35h1V29H29A3,3,0,0,0,29,35Z" fill="#f7a3a0"/><path d="M67,35H66V29h1A3,3,0,0,1,67,35Z" fill="#f7a3a0"/><path d="M67,38c0,12-14,15-19,15S29,50,29,38c0-9,.3741-11.584,2-15C37.4408,8.296,58.5626,8.3032,65,23,66.3325,25.6192,66.9492,33.3252,67,38Z" fill="#fabeb7"/><path d="M67,38c0,12-14,15-19,15,10-2,19-9,18-23,0,0,.22.3.57.83A59.941,59.941,0,0,1,67,38Z" fill="#fab3ab"/><path d="M43,32a2,2,0,0,1-4,0A2,2,0,0,1,43,32Z" fill="#0b3442"/><path d="M53,32a2,2,0,0,0,4,0A2,2,0,0,0,53,32Z" fill="#0b3442"/><path d="M48,4.9307c-23.8523.26-20.6812,15.4923-18.4365,26.706a1,1,0,0,0,1.935.2424S33.32,25.6991,34,24c1.0974-2.7436,8.574-.1578,14-1.7106C56,20,57,16,62,25a59.84,59.84,0,0,1,2.5015,6.8791,1,1,0,0,0,1.9348-.2423S68,23.9144,68,22c0-5.5767-3-13-9.5-11.1185A12.7641,12.7641,0,0,0,48,4.9307Z" fill="#0b3442"/><rect fill="#98d1e6" height="1" width="8" x="54" y="77"/></g></svg>